# xmcd CD database file
#
# Track frame offsets:
#	150
#	9907
#	25422
#	50157
#	81100
#	93712
#	105142
#	117170
#	126662
#	139442
#	151280
#	163985
#	175265
#	187782
#	216115
#	227362
#	237200
#	249955
#	262205
#	274320
#	293720
#	306045
#	316647
#
# Disc length: 4440 seconds
#
# Revision: 2
# Processed by: cddbd v1.5.1PL0 Copyright (c) Steve Scherf et al.
# Submitted via: CDex 1.50beta9
#
DISCID=3e115617
DTITLE=Dinah Washington - The great American standards
DYEAR=1900
DGENRE=Blues
TTITLE0=September in the Rain
TTITLE1=Smoke Gets in Your Eyes
TTITLE2=All of Me
TTITLE3=This Can't Be Love
TTITLE4=I Can't Get Started
TTITLE5=Love Is Here to Stay
TTITLE6=Blue Skies
TTITLE7=Love Letter
TTITLE8=They Didn't Believe Me
TTITLE9=Stormy Weather
TTITLE10=Ain't Misbehavin'
TTITLE11=Ev'ry Time We Say Goodbye
TTITLE12=Teach Me Tonight
TTITLE13=I Get a Kick Out of You
TTITLE14=Come Rain or Come Shine
TTITLE15=Love Walked In
TTITLE16=Mad About the Boy
TTITLE17=Dream
TTITLE18=Everybody Loves My Baby
TTITLE19=Manhattan
TTITLE20=Unforgettable
TTITLE21=It Could Happen to You
TTITLE22=Stardust
EXTD=
EXTT0=
EXTT1=
EXTT2=
EXTT3=
EXTT4=
EXTT5=
EXTT6=
EXTT7=
EXTT8=
EXTT9=
EXTT10=
EXTT11=
EXTT12=
EXTT13=
EXTT14=
EXTT15=
EXTT16=
EXTT17=
EXTT18=
EXTT19=
EXTT20=
EXTT21=
EXTT22=
PLAYORDER=
